<?xml version="1.0" encoding="UTF-8"?>
<svg xmlns="http://www.w3.org/2000/svg" version="1.1" viewBox="0 0 8192 200">
  <defs>
    <style>
      .cls-1 {
        display: none;
        fill: #fff;
      }

      .cls-2 {
        fill: #d6edff;
        fill-opacity: .4;
      }

      .cls-3 {
        fill: #09f;
      }

      .cls-4 {
        fill: #bcf3ff;
      }

      .cls-5 {
        fill: #2a8af7;
        fill-opacity: .6;
      }
    </style>
  </defs>
  <!-- Generator: Adobe Illustrator 28.6.0, SVG Export Plug-In . SVG Version: 1.2.0 Build 709)  -->
  <g>
    <g id="Layer_1">
      <g id="Layer_1-2" data-name="Layer_1">
        <g id="_x34_ec34bfe-bd5d-49de-80ff-bb18cbf4bd4a">
          <rect class="cls-1" x="3653.6" y="-342.4" width="884.7" height="884.7" vector-effect="non-scaling-stroke"/>
        </g>
        <path class="cls-3" d="M3342.3,156.5l-29.5-18.1c-29.5-18-88.5-42.6-147.5-42.4-59,0-118,24.4-176.9,16.7-59-7.6-118-35.1-176.9-32.7s-118,47.8-176.9,49.5-118-31.2-147.5-29.6l-29.5,1.6v83.7h884.7v-28.7h0Z"/>
        <g id="db167a00-ca04-42ca-adba-05fe1fec0164">
          <circle class="cls-2" cx="2889.2" cy="63.2" r="28.7" vector-effect="non-scaling-stroke"/>
        </g>
        <g id="_x39_737ab4d-9e9e-42ca-aa00-da2665381d19">
          <circle class="cls-5" cx="2719.3" cy="49.2" r="25.8" vector-effect="non-scaling-stroke"/>
        </g>
        <g id="d1ab100f-4337-4883-8082-91a718e98f98">
          <circle class="cls-4" cx="2620" cy="132.4" r="18.6" vector-effect="non-scaling-stroke"/>
        </g>
        <g id="d1ab100f-4337-4883-8082-91a718e98f98-2">
          <circle class="cls-4" cx="3150.1" cy="103.2" r="26.1" vector-effect="non-scaling-stroke"/>
        </g>
        <g id="_x39_737ab4d-9e9e-42ca-aa00-da2665381d19-2">
          <circle class="cls-5" cx="3270.2" cy="66.7" r="19.3" vector-effect="non-scaling-stroke"/>
        </g>
        <g id="d1ab100f-4337-4883-8082-91a718e98f98-3">
          <circle class="cls-4" cx="3054.6" cy="49.9" r="18.6" vector-effect="non-scaling-stroke"/>
        </g>
        <g id="_x39_737ab4d-9e9e-42ca-aa00-da2665381d19-3">
          <circle class="cls-5" cx="2577.4" cy="56.5" r="19.3" vector-effect="non-scaling-stroke"/>
        </g>
        <path class="cls-3" d="M3304.7,156.5l29.5-18.1c29.5-18,88.5-42.6,147.5-42.4,59,0,118,24.4,176.9,16.7,59-7.6,118-35.1,176.9-32.7s118,47.8,176.9,49.5,118-31.2,147.5-29.6l29.5,1.6v83.7h-884.7v-28.7h0Z"/>
        <g id="db167a00-ca04-42ca-adba-05fe1fec0164-2">
          <circle class="cls-2" cx="3757.8" cy="63.2" r="28.7" vector-effect="non-scaling-stroke"/>
        </g>
        <g id="_x39_737ab4d-9e9e-42ca-aa00-da2665381d19-4">
          <circle class="cls-5" cx="3910.9" cy="91.9" r="25.8" vector-effect="non-scaling-stroke"/>
        </g>
        <g id="d1ab100f-4337-4883-8082-91a718e98f98-4">
          <circle class="cls-4" cx="3496.9" cy="103.2" r="26.1" vector-effect="non-scaling-stroke"/>
        </g>
        <g id="_x39_737ab4d-9e9e-42ca-aa00-da2665381d19-5">
          <circle class="cls-5" cx="3376.7" cy="66.7" r="19.3" vector-effect="non-scaling-stroke"/>
        </g>
        <g id="d1ab100f-4337-4883-8082-91a718e98f98-5">
          <circle class="cls-4" cx="3592.4" cy="49.9" r="18.6" vector-effect="non-scaling-stroke"/>
        </g>
        <path class="cls-3" d="M5027.4,156.5l-29.5-18.1c-29.5-18-88.5-42.6-147.5-42.4-59,0-118,24.4-176.9,16.7-59-7.6-118-35.1-176.9-32.7s-118,47.8-176.9,49.5-118-31.2-147.5-29.6l-29.5,1.6v83.7h884.7v-28.7h0Z"/>
        <g id="db167a00-ca04-42ca-adba-05fe1fec0164-3">
          <circle class="cls-2" cx="4507.8" cy="103.2" r="28.7" vector-effect="non-scaling-stroke"/>
        </g>
        <g id="_x39_737ab4d-9e9e-42ca-aa00-da2665381d19-6">
          <circle class="cls-5" cx="4401.1" cy="49.2" r="25.8" vector-effect="non-scaling-stroke"/>
        </g>
        <g id="d1ab100f-4337-4883-8082-91a718e98f98-6">
          <circle class="cls-4" cx="4713.3" cy="68.5" r="26.1" vector-effect="non-scaling-stroke"/>
        </g>
        <g id="_x39_737ab4d-9e9e-42ca-aa00-da2665381d19-7">
          <circle class="cls-5" cx="4836.1" cy="94.7" r="19.3" vector-effect="non-scaling-stroke"/>
        </g>
        <g id="d1ab100f-4337-4883-8082-91a718e98f98-7">
          <circle class="cls-4" cx="4607.4" cy="91.9" r="18.6" vector-effect="non-scaling-stroke"/>
        </g>
        <g id="_x39_737ab4d-9e9e-42ca-aa00-da2665381d19-8">
          <circle class="cls-5" cx="4212.4" cy="60.3" r="19.3" vector-effect="non-scaling-stroke"/>
        </g>
        <path class="cls-3" d="M4865.2,156.5l29.5-18.1c29.5-18,88.5-42.6,147.5-42.4,59,0,118,24.4,176.9,16.7,59-7.6,118-35.1,176.9-32.7s118,47.8,176.9,49.5,118-31.2,147.5-29.6l29.5,1.6v83.7h-884.7v-28.7h0Z"/>
        <g id="db167a00-ca04-42ca-adba-05fe1fec0164-4">
          <circle class="cls-2" cx="5288.3" cy="109.3" r="28.7" vector-effect="non-scaling-stroke"/>
        </g>
        <g id="_x39_737ab4d-9e9e-42ca-aa00-da2665381d19-9">
          <circle class="cls-5" cx="5488.3" cy="49.2" r="25.8" vector-effect="non-scaling-stroke"/>
        </g>
        <g id="d1ab100f-4337-4883-8082-91a718e98f98-8">
          <circle class="cls-4" cx="5530.4" cy="127.9" r="18.6" vector-effect="non-scaling-stroke"/>
        </g>
        <g id="d1ab100f-4337-4883-8082-91a718e98f98-9">
          <circle class="cls-4" cx="5057.5" cy="103.2" r="26.1" vector-effect="non-scaling-stroke"/>
        </g>
        <g id="_x39_737ab4d-9e9e-42ca-aa00-da2665381d19-10">
          <circle class="cls-5" cx="4937.3" cy="66.7" r="19.3" vector-effect="non-scaling-stroke"/>
        </g>
        <g id="d1ab100f-4337-4883-8082-91a718e98f98-10">
          <circle class="cls-4" cx="5152.9" cy="49.9" r="18.6" vector-effect="non-scaling-stroke"/>
        </g>
        <g id="_x39_737ab4d-9e9e-42ca-aa00-da2665381d19-11">
          <circle class="cls-5" cx="5603.4" cy="68.3" r="19.3" vector-effect="non-scaling-stroke"/>
        </g>
        <g id="d1ab100f-4337-4883-8082-91a718e98f98-11">
          <circle class="cls-4" cx="4074" cy="86" r="26.1" vector-effect="non-scaling-stroke"/>
        </g>
        <path class="cls-3" d="M95.4,156.4l-29.5-18.1c-29.5-18-88.5-42.6-147.5-42.4-59,0-118,24.4-176.9,16.7-59-7.6-118-35.1-176.9-32.7s-118,47.8-176.9,49.5-118-31.2-147.5-29.6l-29.5,1.6v83.7H95.4v-28.7h0Z"/>
        <g id="db167a00-ca04-42ca-adba-05fe1fec0164-5">
          <circle class="cls-2" cx="-465.3" cy="77" r="28.7" vector-effect="non-scaling-stroke"/>
        </g>
        <g id="_x39_737ab4d-9e9e-42ca-aa00-da2665381d19-12">
          <circle class="cls-5" cx="-598.1" cy="110.4" r="25.8" vector-effect="non-scaling-stroke"/>
        </g>
        <g id="d1ab100f-4337-4883-8082-91a718e98f98-12">
          <circle class="cls-4" cx="-758.9" cy="100" r="18.6" vector-effect="non-scaling-stroke"/>
        </g>
        <g id="d1ab100f-4337-4883-8082-91a718e98f98-13">
          <circle class="cls-4" cx="-230" cy="110.4" r="26.1" vector-effect="non-scaling-stroke"/>
        </g>
        <g id="_x39_737ab4d-9e9e-42ca-aa00-da2665381d19-13">
          <circle class="cls-5" cx="-116" cy="96.2" r="19.3" vector-effect="non-scaling-stroke"/>
        </g>
        <g id="d1ab100f-4337-4883-8082-91a718e98f98-14">
          <circle class="cls-4" cx="-319.1" cy="7.8" r="18.6" vector-effect="non-scaling-stroke"/>
        </g>
        <g id="_x39_737ab4d-9e9e-42ca-aa00-da2665381d19-14">
          <circle class="cls-5" cx="-683" cy="23.3" r="19.3" vector-effect="non-scaling-stroke"/>
        </g>
        <path class="cls-3" d="M57.8,156.4l29.5-18.1c29.5-18,88.5-42.6,147.5-42.4,59,0,118,24.4,176.9,16.7,59-7.6,118-35.1,176.9-32.7s118,47.8,176.9,49.5,118-31.2,147.5-29.6l29.5,1.6v83.7H57.8v-28.7h0Z"/>
        <g id="db167a00-ca04-42ca-adba-05fe1fec0164-6">
          <circle class="cls-2" cx="482.2" cy="110.4" r="28.7" vector-effect="non-scaling-stroke"/>
        </g>
        <g id="_x39_737ab4d-9e9e-42ca-aa00-da2665381d19-15">
          <circle class="cls-5" cx="664" cy="91.8" r="25.8" vector-effect="non-scaling-stroke"/>
        </g>
        <g id="d1ab100f-4337-4883-8082-91a718e98f98-15">
          <circle class="cls-4" cx="203.6" cy="96.2" r="26.1" vector-effect="non-scaling-stroke"/>
        </g>
        <g id="_x39_737ab4d-9e9e-42ca-aa00-da2665381d19-16">
          <circle class="cls-5" cx="95.4" cy="49.1" r="19.3" vector-effect="non-scaling-stroke"/>
        </g>
        <g id="d1ab100f-4337-4883-8082-91a718e98f98-16">
          <circle class="cls-4" cx="355.5" cy="37.2" r="18.6" vector-effect="non-scaling-stroke"/>
        </g>
        <path class="cls-3" d="M1780.5,156.4l-29.5-18.1c-29.5-18-88.5-42.6-147.5-42.4-59,0-118,24.4-176.9,16.7-59-7.6-118-35.1-176.9-32.7s-118,47.8-176.9,49.5-118-31.2-147.5-29.6l-29.5,1.6v83.7h884.7v-28.7h0Z"/>
        <g id="db167a00-ca04-42ca-adba-05fe1fec0164-7">
          <circle class="cls-2" cx="1232.2" cy="129.2" r="28.7" vector-effect="non-scaling-stroke"/>
        </g>
        <g id="_x39_737ab4d-9e9e-42ca-aa00-da2665381d19-17">
          <circle class="cls-5" cx="1096.8" cy="77" r="25.8" vector-effect="non-scaling-stroke"/>
        </g>
        <g id="d1ab100f-4337-4883-8082-91a718e98f98-17">
          <circle class="cls-4" cx="1466.4" cy="68.5" r="26.1" vector-effect="non-scaling-stroke"/>
        </g>
        <g id="_x39_737ab4d-9e9e-42ca-aa00-da2665381d19-18">
          <circle class="cls-5" cx="1589.2" cy="94.6" r="19.3" vector-effect="non-scaling-stroke"/>
        </g>
        <g id="d1ab100f-4337-4883-8082-91a718e98f98-18">
          <circle class="cls-4" cx="910.5" cy="100.5" r="18.6" vector-effect="non-scaling-stroke"/>
        </g>
        <g id="_x39_737ab4d-9e9e-42ca-aa00-da2665381d19-19">
          <circle class="cls-5" cx="1708.9" cy="56.2" r="19.3" vector-effect="non-scaling-stroke"/>
        </g>
        <path class="cls-3" d="M1618.3,156.4l29.5-18.1c29.5-18,88.5-42.6,147.5-42.4,59,0,118,24.4,176.9,16.7,59-7.6,118-35.1,176.9-32.7s118,47.8,176.9,49.5,118-31.2,147.5-29.6l29.5,1.6v83.7h-884.7v-28.7h0Z"/>
        <g id="db167a00-ca04-42ca-adba-05fe1fec0164-8">
          <circle class="cls-2" cx="2071.4" cy="63.1" r="28.7" vector-effect="non-scaling-stroke"/>
        </g>
        <g id="_x39_737ab4d-9e9e-42ca-aa00-da2665381d19-20">
          <circle class="cls-5" cx="2241.4" cy="49.1" r="25.8" vector-effect="non-scaling-stroke"/>
        </g>
        <g id="d1ab100f-4337-4883-8082-91a718e98f98-19">
          <circle class="cls-4" cx="2481.7" cy="104.2" r="18.6" vector-effect="non-scaling-stroke"/>
        </g>
        <g id="d1ab100f-4337-4883-8082-91a718e98f98-20">
          <circle class="cls-4" cx="1810.6" cy="103.1" r="26.1" vector-effect="non-scaling-stroke"/>
        </g>
        <g id="_x39_737ab4d-9e9e-42ca-aa00-da2665381d19-21">
          <circle class="cls-5" cx="1363.5" cy="92.8" r="19.3" vector-effect="non-scaling-stroke"/>
        </g>
        <g id="d1ab100f-4337-4883-8082-91a718e98f98-21">
          <circle class="cls-4" cx="1906" cy="49.9" r="18.6" vector-effect="non-scaling-stroke"/>
        </g>
        <g id="_x39_737ab4d-9e9e-42ca-aa00-da2665381d19-22">
          <circle class="cls-5" cx="2430.1" cy="60.2" r="19.3" vector-effect="non-scaling-stroke"/>
        </g>
        <g id="d1ab100f-4337-4883-8082-91a718e98f98-22">
          <circle class="cls-4" cx="813.8" cy="66.7" r="26.1" vector-effect="non-scaling-stroke"/>
        </g>
        <path class="cls-3" d="M6589.3,156.4l-29.5-18.1c-29.5-18-88.5-42.6-147.5-42.4-59,0-118,24.4-176.9,16.7-59-7.6-118-35.1-176.9-32.7s-118,47.8-176.9,49.5-118-31.2-147.5-29.6l-29.5,1.6v83.7h884.7v-28.7h0Z"/>
        <g id="db167a00-ca04-42ca-adba-05fe1fec0164-9">
          <circle class="cls-2" cx="6118.3" cy="113.8" r="28.7" vector-effect="non-scaling-stroke"/>
        </g>
        <g id="_x39_737ab4d-9e9e-42ca-aa00-da2665381d19-23">
          <circle class="cls-5" cx="5981.5" cy="60.2" r="25.8" vector-effect="non-scaling-stroke"/>
        </g>
        <g id="d1ab100f-4337-4883-8082-91a718e98f98-23">
          <circle class="cls-4" cx="5731.4" cy="106.1" r="18.6" vector-effect="non-scaling-stroke"/>
        </g>
        <g id="d1ab100f-4337-4883-8082-91a718e98f98-24">
          <circle class="cls-4" cx="6397.1" cy="103.1" r="26.1" vector-effect="non-scaling-stroke"/>
        </g>
        <g id="_x39_737ab4d-9e9e-42ca-aa00-da2665381d19-24">
          <circle class="cls-5" cx="6517.2" cy="66.7" r="19.3" vector-effect="non-scaling-stroke"/>
        </g>
        <g id="d1ab100f-4337-4883-8082-91a718e98f98-25">
          <circle class="cls-4" cx="6301.6" cy="49.9" r="18.6" vector-effect="non-scaling-stroke"/>
        </g>
        <g id="_x39_737ab4d-9e9e-42ca-aa00-da2665381d19-25">
          <circle class="cls-5" cx="5777.6" cy="60.2" r="19.3" vector-effect="non-scaling-stroke"/>
        </g>
        <path class="cls-3" d="M6551.6,156.4l29.5-18.1c29.5-18,88.5-42.6,147.5-42.4,59,0,118,24.4,176.9,16.7,59-7.6,118-35.1,176.9-32.7s118,47.8,176.9,49.5,118-31.2,147.5-29.6l29.5,1.6v83.7h-884.7v-28.7h0Z"/>
        <g id="db167a00-ca04-42ca-adba-05fe1fec0164-10">
          <circle class="cls-2" cx="7004.7" cy="63.1" r="28.7" vector-effect="non-scaling-stroke"/>
        </g>
        <g id="_x39_737ab4d-9e9e-42ca-aa00-da2665381d19-26">
          <circle class="cls-5" cx="7157.8" cy="91.8" r="25.8" vector-effect="non-scaling-stroke"/>
        </g>
        <g id="d1ab100f-4337-4883-8082-91a718e98f98-26">
          <circle class="cls-4" cx="6744" cy="103.1" r="26.1" vector-effect="non-scaling-stroke"/>
        </g>
        <g id="_x39_737ab4d-9e9e-42ca-aa00-da2665381d19-27">
          <circle class="cls-5" cx="6623.7" cy="66.7" r="19.3" vector-effect="non-scaling-stroke"/>
        </g>
        <g id="d1ab100f-4337-4883-8082-91a718e98f98-27">
          <circle class="cls-4" cx="6839.4" cy="49.9" r="18.6" vector-effect="non-scaling-stroke"/>
        </g>
        <path class="cls-3" d="M8274.4,156.4l-29.5-18.1c-29.5-18-88.5-42.6-147.5-42.4-59,0-118,24.4-176.9,16.7-59-7.6-118-35.1-176.9-32.7s-118,47.8-176.9,49.5-118-31.2-147.5-29.6l-29.5,1.6v83.7h884.7v-28.7h0Z"/>
        <g id="db167a00-ca04-42ca-adba-05fe1fec0164-11">
          <circle class="cls-2" cx="7818.1" cy="63.1" r="28.7" vector-effect="non-scaling-stroke"/>
        </g>
        <g id="_x39_737ab4d-9e9e-42ca-aa00-da2665381d19-28">
          <circle class="cls-5" cx="7648.1" cy="49.1" r="25.8" vector-effect="non-scaling-stroke"/>
        </g>
        <g id="d1ab100f-4337-4883-8082-91a718e98f98-28">
          <circle class="cls-4" cx="7960.3" cy="68.5" r="26.1" vector-effect="non-scaling-stroke"/>
        </g>
        <g id="_x39_737ab4d-9e9e-42ca-aa00-da2665381d19-29">
          <circle class="cls-5" cx="8083.1" cy="94.6" r="19.3" vector-effect="non-scaling-stroke"/>
        </g>
        <g id="d1ab100f-4337-4883-8082-91a718e98f98-29">
          <circle class="cls-4" cx="7854.5" cy="91.8" r="18.6" vector-effect="non-scaling-stroke"/>
        </g>
        <g id="_x39_737ab4d-9e9e-42ca-aa00-da2665381d19-30">
          <circle class="cls-5" cx="7459.4" cy="60.2" r="19.3" vector-effect="non-scaling-stroke"/>
        </g>
        <path class="cls-3" d="M8112.2,156.4l29.5-18.1c29.5-18,88.5-42.6,147.5-42.4,59,0,118,24.4,176.9,16.7,59-7.6,118-35.1,176.9-32.7s118,47.8,176.9,49.5,118-31.2,147.5-29.6l29.5,1.6v83.7h-884.7v-28.7h0Z"/>
        <g id="db167a00-ca04-42ca-adba-05fe1fec0164-12">
          <circle class="cls-2" cx="8565.3" cy="63.1" r="28.7" vector-effect="non-scaling-stroke"/>
        </g>
        <g id="_x39_737ab4d-9e9e-42ca-aa00-da2665381d19-31">
          <circle class="cls-5" cx="8735.3" cy="49.1" r="25.8" vector-effect="non-scaling-stroke"/>
        </g>
        <g id="d1ab100f-4337-4883-8082-91a718e98f98-30">
          <circle class="cls-4" cx="8944.8" cy="122.8" r="18.6" vector-effect="non-scaling-stroke"/>
        </g>
        <g id="d1ab100f-4337-4883-8082-91a718e98f98-31">
          <circle class="cls-4" cx="8304.6" cy="103.1" r="26.1" vector-effect="non-scaling-stroke"/>
        </g>
        <g id="_x39_737ab4d-9e9e-42ca-aa00-da2665381d19-32">
          <circle class="cls-5" cx="8184.3" cy="66.7" r="19.3" vector-effect="non-scaling-stroke"/>
        </g>
        <g id="d1ab100f-4337-4883-8082-91a718e98f98-32">
          <circle class="cls-4" cx="8400" cy="49.9" r="18.6" vector-effect="non-scaling-stroke"/>
        </g>
        <g id="_x39_737ab4d-9e9e-42ca-aa00-da2665381d19-33">
          <circle class="cls-5" cx="8924" cy="60.2" r="19.3" vector-effect="non-scaling-stroke"/>
        </g>
        <g id="d1ab100f-4337-4883-8082-91a718e98f98-33">
          <circle class="cls-4" cx="7321" cy="85.9" r="26.1" vector-effect="non-scaling-stroke"/>
        </g>
        <g id="_x39_737ab4d-9e9e-42ca-aa00-da2665381d19-16-2" data-name="_x39_737ab4d-9e9e-42ca-aa00-da2665381d19-16">
          <circle class="cls-5" cx="-33.2" cy="29.8" r="29.8" vector-effect="non-scaling-stroke"/>
        </g>
      </g>
    </g>
  </g>
</svg>