<?xml version="1.0" encoding="UTF-8"?>
<svg id="Layer_1" data-name="Layer 1" xmlns="http://www.w3.org/2000/svg" xmlns:xlink="http://www.w3.org/1999/xlink" viewBox="0 0 153.32 65.04">
  <defs>
    <style>
      .cls-1 {
        letter-spacing: 0em;
      }

      .cls-1, .cls-2, .cls-3, .cls-4, .cls-5, .cls-6, .cls-7, .cls-8, .cls-9 {
        font-size: 11.14px;
      }

      .cls-10 {
        fill: url(#linear-gradient);
      }

      .cls-10, .cls-11, .cls-12 {
        stroke-width: 0px;
      }

      .cls-3 {
        letter-spacing: 0em;
      }

      .cls-13 {
        stroke-width: .27px;
      }

      .cls-13, .cls-14, .cls-15 {
        stroke: #28aae1;
      }

      .cls-13, .cls-14, .cls-15, .cls-16, .cls-17 {
        stroke-miterlimit: 10;
      }

      .cls-13, .cls-18 {
        fill: #000;
      }

      .cls-4 {
        letter-spacing: 0em;
      }

      .cls-14 {
        fill: none;
        stroke-width: .62px;
      }

      .cls-15 {
        fill: #211e1f;
      }

      .cls-15, .cls-17 {
        stroke-width: .42px;
      }

      .cls-11 {
        fill: url(#linear-gradient-2);
      }

      .cls-5 {
        letter-spacing: .02em;
      }

      .cls-19 {
        font-size: 12.37px;
      }

      .cls-16 {
        stroke: #000;
        stroke-width: .7px;
      }

      .cls-16, .cls-17, .cls-12 {
        fill: #28aae1;
      }

      .cls-20 {
        letter-spacing: 0em;
      }

      .cls-20, .cls-21 {
        font-size: 12.56px;
      }

      .cls-17 {
        stroke: #211e1f;
      }

      .cls-6 {
        letter-spacing: .02em;
      }

      .cls-18 {
        font-family: MinionVariableConcept-Roman, 'Minion Variable Concept';
        font-variation-settings: 'wght' 400, 'opsz' 11;
      }

      .cls-7 {
        letter-spacing: .02em;
      }

      .cls-8 {
        letter-spacing: .02em;
      }

      .cls-9 {
        letter-spacing: 0em;
      }
    </style>
    <linearGradient id="linear-gradient" x1="89.16" y1="53.6" x2="97.94" y2="53.6" gradientTransform="translate(-22.03 32.3) rotate(-19.79)" gradientUnits="userSpaceOnUse">
      <stop offset=".15" stop-color="#28aae1"/>
      <stop offset="1" stop-color="#000"/>
    </linearGradient>
    <linearGradient id="linear-gradient-2" x1="85.83" y1="50.92" x2="90.51" y2="50.92" gradientTransform="translate(-22.03 32.3) rotate(-19.79)" gradientUnits="userSpaceOnUse">
      <stop offset="0" stop-color="#221f1f"/>
      <stop offset=".74" stop-color="#28aae1"/>
    </linearGradient>
  </defs>
  <polygon class="cls-15" points="49.7 .28 101.5 44.14 87.89 44.14 49.7 11.62 12.27 44.14 .55 44.14 49.7 .28"/>
  <polygon class="cls-17" points="65.2 7.08 107.17 44.14 113.6 44.14 129.86 22.21 146.11 44.14 152.92 44.14 130.99 11.62 106.04 24.1 65.2 7.08"/>
  <rect class="cls-16" x="44.28" y="29.2" width="5.16" height="5.16"/>
  <rect class="cls-16" x="51.03" y="29.2" width="5.16" height="5.16"/>
  <rect class="cls-16" x="51.03" y="36.19" width="5.16" height="5.16"/>
  <rect class="cls-16" x="44.28" y="36.19" width="5.16" height="5.16"/>
  <rect class="cls-13" x="126.57" y="34.11" width="3.42" height="3.42"/>
  <rect class="cls-13" x="130.78" y="34.11" width="3.42" height="3.42"/>
  <rect class="cls-13" x="130.78" y="38.32" width="3.42" height="3.42"/>
  <rect class="cls-13" x="126.57" y="38.32" width="3.42" height="3.42"/>
  <g>
    <text class="cls-18" transform="translate(29.48 56.91)"><tspan class="cls-21" x="0" y="0">P</tspan><tspan class="cls-3" x="7.24" y="0">r</tspan><tspan class="cls-2" x="11.28" y="0">o</tspan><tspan class="cls-4" x="17.02" y="0">p</tspan><tspan class="cls-2" x="22.99" y="0">e</tspan><tspan class="cls-6" x="27.8" y="0">r</tspan><tspan class="cls-8" x="32.17" y="0">t</tspan><tspan class="cls-2" x="35.8" y="0">y</tspan><tspan class="cls-21" x="40.8" y="0" xml:space="preserve">  </tspan></text>
    <text class="cls-18" transform="translate(91.08 58.52)"><tspan class="cls-19" x="0" y="0">R</tspan><tspan class="cls-5" x="7.58" y="0">e</tspan><tspan class="cls-7" x="12.66" y="0">v</tspan><tspan class="cls-1" x="17.93" y="0">i</tspan><tspan class="cls-9" x="20.9" y="0">v</tspan><tspan class="cls-2" x="25.98" y="0">e</tspan><tspan class="cls-20" x="30.79" y="0"> </tspan></text>
    <path class="cls-14" d="M30.25,60.81h44.89l1.72-2.31,1.52,5.45,2.85-8.98,2.28,7.85.92-2.04h28.54c3.16.01,7.73.01,8.54.01"/>
    <path class="cls-10" d="M82.01,54.01s3.91.6,4.44-3.98c0,0,.04-2,.88-3.07,0,0-4.76.17-6.07,2.54,0,0-1.05,1.47-.26,4.11l.07,1.89.43.04s-.45-4.53,2.69-6.56c0,0-2.3,2.22-2.18,5.02Z"/>
    <path class="cls-11" d="M80.49,49.88s-.81-2.2-5.57-1.65c0,0,.91,1.94,1.46,2.98s1.72,1.98,3.73,1.74c0,0-.09-1.65-1.47-2.76s-.91-.89-.91-.89c0,0,1.26.54,1.78,1.31s.62,1.03.62,1.03c0,0-.08-.97.36-1.76Z"/>
  </g>
  <path class="cls-12" d="M80.72,55.54s.49-1.04.16-2.46l.69.6s-.09.65.21,2.08l.3,1.43-.75-1.66h-.61Z"/>
</svg>