<?xml version="1.0" encoding="UTF-8"?>
<svg id="Layer_1" data-name="Layer 1" xmlns="http://www.w3.org/2000/svg" xmlns:xlink="http://www.w3.org/1999/xlink" viewBox="0 0 92.39 18.49">
  <defs>
    <style>
      .cls-1 {
        letter-spacing: 0em;
      }

      .cls-1, .cls-2, .cls-3, .cls-4, .cls-5, .cls-6, .cls-7, .cls-8, .cls-9 {
        font-size: 11.14px;
      }

      .cls-10 {
        fill: url(#linear-gradient);
      }

      .cls-10, .cls-11, .cls-12 {
        stroke-width: 0px;
      }

      .cls-3 {
        letter-spacing: 0em;
      }

      .cls-4 {
        letter-spacing: 0em;
      }

      .cls-13 {
        fill: none;
        stroke: #28aae1;
        stroke-miterlimit: 10;
        stroke-width: .62px;
      }

      .cls-11 {
        fill: url(#linear-gradient-2);
      }

      .cls-5 {
        letter-spacing: .02em;
      }

      .cls-14 {
        font-size: 12.37px;
      }

      .cls-15 {
        font-size: 12.56px;
      }

      .cls-6 {
        letter-spacing: .02em;
      }

      .cls-16 {
        fill: #000;
        font-family: MinionVariableConcept-Roman, 'Minion Variable Concept';
        font-variation-settings: 'wght' 400, 'opsz' 11;
      }

      .cls-7 {
        letter-spacing: .02em;
      }

      .cls-8 {
        letter-spacing: .02em;
      }

      .cls-9 {
        letter-spacing: 0em;
      }

      .cls-12 {
        fill: #28aae1;
      }
    </style>
    <linearGradient id="linear-gradient" x1="67.68" y1="9.4" x2="76.46" y2="9.4" gradientTransform="translate(-16.33 20.06) rotate(-19.79)" gradientUnits="userSpaceOnUse">
      <stop offset=".15" stop-color="#28aae1"/>
      <stop offset="1" stop-color="#000"/>
    </linearGradient>
    <linearGradient id="linear-gradient-2" x1="64.35" y1="6.73" x2="69.03" y2="6.73" gradientTransform="translate(-16.33 20.06) rotate(-19.79)" gradientUnits="userSpaceOnUse">
      <stop offset="0" stop-color="#221f1f"/>
      <stop offset=".74" stop-color="#28aae1"/>
    </linearGradient>
  </defs>
  <text class="cls-16" transform="translate(0 10.36)"><tspan class="cls-15" x="0" y="0">P</tspan><tspan class="cls-3" x="7.24" y="0">r</tspan><tspan class="cls-2" x="11.28" y="0">o</tspan><tspan class="cls-4" x="17.02" y="0">p</tspan><tspan class="cls-2" x="22.99" y="0">e</tspan><tspan class="cls-6" x="27.8" y="0">r</tspan><tspan class="cls-8" x="32.17" y="0">t</tspan><tspan class="cls-2" x="35.8" y="0">y</tspan></text>
  <text class="cls-16" transform="translate(61.6 11.97)"><tspan class="cls-14" x="0" y="0">R</tspan><tspan class="cls-5" x="7.58" y="0">e</tspan><tspan class="cls-7" x="12.66" y="0">v</tspan><tspan class="cls-1" x="17.93" y="0">i</tspan><tspan class="cls-9" x="20.9" y="0">v</tspan><tspan class="cls-2" x="25.98" y="0">e</tspan></text>
  <path class="cls-13" d="M.77,14.26h44.89l1.72-2.31,1.52,5.45,2.85-8.98,2.28,7.85.92-2.04h28.54c3.16.01,7.73.01,8.54.01"/>
  <path class="cls-10" d="M52.53,7.46s3.91.6,4.44-3.98c0,0,.04-2,.88-3.07,0,0-4.76.17-6.07,2.54,0,0-1.05,1.47-.26,4.11l.07,1.89.43.04s-.45-4.53,2.69-6.56c0,0-2.3,2.22-2.18,5.02Z"/>
  <path class="cls-11" d="M51.01,3.34s-.81-2.2-5.57-1.65c0,0,.91,1.94,1.46,2.98s1.72,1.98,3.73,1.74c0,0-.09-1.65-1.47-2.76s-.91-.89-.91-.89c0,0,1.26.54,1.78,1.31s.62,1.03.62,1.03c0,0-.08-.97.36-1.76Z"/>
  <path class="cls-12" d="M50.85,8.91s.49-1.04.16-2.46l.69.6s-.09.65.21,2.08l.3,1.43-.75-1.66h-.61Z"/>
</svg>