<svg viewBox="0 0 153.32 45.25188679245284" xmlns:xlink="http://www.w3.org/1999/xlink" xmlns="http://www.w3.org/2000/svg" data-name="Layer 1" id="Layer_1" style="max-height: 500px" width="153.32" height="45.25188679245284">
  <defs>
    <style>
      .cls-1 {
        letter-spacing: 0em;
      }

      .cls-1, .cls-2, .cls-3, .cls-4, .cls-5, .cls-6, .cls-7, .cls-8, .cls-9 {
        font-size: 11.14px;
      }

      .cls-10 {
        fill: url(#linear-gradient);
      }

      .cls-10, .cls-11, .cls-12 {
        stroke-width: 0px;
      }

      .cls-3 {
        letter-spacing: 0em;
      }

      .cls-13 {
        stroke-width: .27px;
      }

      .cls-13, .cls-14, .cls-15 {
        stroke: #28aae1;
      }

      .cls-13, .cls-14, .cls-15, .cls-16, .cls-17 {
        stroke-miterlimit: 10;
      }

      .cls-13, .cls-18 {
        fill: #000;
      }

      .cls-4 {
        letter-spacing: 0em;
      }

      .cls-14 {
        fill: none;
        stroke-width: .62px;
      }

      .cls-15 {
        fill: #211e1f;
      }

      .cls-15, .cls-17 {
        stroke-width: .42px;
      }

      .cls-11 {
        fill: url(#linear-gradient-2);
      }

      .cls-5 {
        letter-spacing: .02em;
      }

      .cls-19 {
        font-size: 12.37px;
      }

      .cls-16 {
        stroke: #000;
        stroke-width: .7px;
      }

      .cls-16, .cls-17, .cls-12 {
        fill: #28aae1;
      }

      .cls-20 {
        letter-spacing: 0em;
      }

      .cls-20, .cls-21 {
        font-size: 12.56px;
      }

      .cls-17 {
        stroke: #211e1f;
      }

      .cls-6 {
        letter-spacing: .02em;
      }

      .cls-18 {
        font-family: MinionVariableConcept-Roman, 'Minion Variable Concept';
        font-variation-settings: 'wght' 400, 'opsz' 11;
      }

      .cls-7 {
        letter-spacing: .02em;
      }

      .cls-8 {
        letter-spacing: .02em;
      }

      .cls-9 {
        letter-spacing: 0em;
      }
    </style><style class="darkreader darkreader--sync" media="screen"/>
    <linearGradient gradientUnits="userSpaceOnUse" gradientTransform="translate(-22.03 32.3) rotate(-19.79)" y2="53.6" x2="97.94" y1="53.6" x1="89.16" id="linear-gradient">
      <stop stop-color="#28aae1" offset=".15" data-darkreader-inline-stopcolor="" style="--darkreader-inline-stopcolor: #1881ae;"/>
      <stop stop-color="#000" offset="1" data-darkreader-inline-stopcolor="" style="--darkreader-inline-stopcolor: #000000;"/>
    </linearGradient>
    <linearGradient gradientUnits="userSpaceOnUse" gradientTransform="translate(-22.03 32.3) rotate(-19.79)" y2="50.92" x2="90.51" y1="50.92" x1="85.83" id="linear-gradient-2">
      <stop stop-color="#221f1f" offset="0" data-darkreader-inline-stopcolor="" style="--darkreader-inline-stopcolor: #181b1c;"/>
      <stop stop-color="#28aae1" offset=".74" data-darkreader-inline-stopcolor="" style="--darkreader-inline-stopcolor: #1881ae;"/>
    </linearGradient>
  </defs>
  <polygon points="49.7 .28 101.5 44.14 87.89 44.14 49.7 11.62 12.27 44.14 .55 44.14 49.7 .28" class="cls-15"/>
  <polygon points="65.2 7.08 107.17 44.14 113.6 44.14 129.86 22.21 146.11 44.14 152.92 44.14 130.99 11.62 106.04 24.1 65.2 7.08" class="cls-17"/>
  <rect height="5.16" width="5.16" y="29.2" x="44.28" class="cls-16"/>
  <rect height="5.16" width="5.16" y="29.2" x="51.03" class="cls-16"/>
  <rect height="5.16" width="5.16" y="36.19" x="51.03" class="cls-16"/>
  <rect height="5.16" width="5.16" y="36.19" x="44.28" class="cls-16"/>
  <rect height="3.42" width="3.42" y="34.11" x="126.57" class="cls-13"/>
  <rect height="3.42" width="3.42" y="34.11" x="130.78" class="cls-13"/>
  <rect height="3.42" width="3.42" y="38.32" x="130.78" class="cls-13"/>
  <rect height="3.42" width="3.42" y="38.32" x="126.57" class="cls-13"/>
  <g>
    <text transform="translate(29.48 56.91)" class="cls-18"><tspan y="0" x="0" class="cls-21">P</tspan><tspan y="0" x="7.24" class="cls-3">r</tspan><tspan y="0" x="11.28" class="cls-2">o</tspan><tspan y="0" x="17.02" class="cls-4">p</tspan><tspan y="0" x="22.99" class="cls-2">e</tspan><tspan y="0" x="27.8" class="cls-6">r</tspan><tspan y="0" x="32.17" class="cls-8">t</tspan><tspan y="0" x="35.8" class="cls-2">y</tspan><tspan xml:space="preserve" y="0" x="40.8" class="cls-21">  </tspan></text>
    <text transform="translate(91.08 58.52)" class="cls-18"><tspan y="0" x="0" class="cls-19">R</tspan><tspan y="0" x="7.58" class="cls-5">e</tspan><tspan y="0" x="12.66" class="cls-7">v</tspan><tspan y="0" x="17.93" class="cls-1">i</tspan><tspan y="0" x="20.9" class="cls-9">v</tspan><tspan y="0" x="25.98" class="cls-2">e</tspan><tspan y="0" x="30.79" class="cls-20"> </tspan></text>
    <path d="M30.25,60.81h44.89l1.72-2.31,1.52,5.45,2.85-8.98,2.28,7.85.92-2.04h28.54c3.16.01,7.73.01,8.54.01" class="cls-14"/>
    <path d="M82.01,54.01s3.91.6,4.44-3.98c0,0,.04-2,.88-3.07,0,0-4.76.17-6.07,2.54,0,0-1.05,1.47-.26,4.11l.07,1.89.43.04s-.45-4.53,2.69-6.56c0,0-2.3,2.22-2.18,5.02Z" class="cls-10"/>
    <path d="M80.49,49.88s-.81-2.2-5.57-1.65c0,0,.91,1.94,1.46,2.98s1.72,1.98,3.73,1.74c0,0-.09-1.65-1.47-2.76s-.91-.89-.91-.89c0,0,1.26.54,1.78,1.31s.62,1.03.62,1.03c0,0-.08-.97.36-1.76Z" class="cls-11"/>
  </g>
  <path d="M80.72,55.54s.49-1.04.16-2.46l.69.6s-.09.65.21,2.08l.3,1.43-.75-1.66h-.61Z" class="cls-12"/>
</svg>